<svg xmlns="http://www.w3.org/2000/svg" width="431.54119873046875" height="168.81680297851562" viewBox="-293.1122741699219 -100.56477355957031 431.54119873046875 168.81680297851562"><title>Neo4j Graph Visualization</title><desc>Created using Neo4j (http://www.neo4j.com/)</desc><g class="layer relationships"><g class="relationship" transform="translate(109.4289344436831 39.25202691091312) rotate(231.05643397325554)"><path class="b-outline" fill="#A5ABB6" stroke="none" d="M 21.40063509461097,12.933012701892217 L 21.90063509461097,12.06698729810778 A 95.8793612207601 95.8793612207601 0 0 0 57.994142906701285,24.17775715427632 L 57.87059001015023,25.1700951419367 A 96.8793612207601 96.8793612207601 0 0 1 21.40063509461097,12.933012701892217 Z M 77.26887558442502,25.62716088103602 L 77.19219712798365,24.630105007818386 A 95.8793612207601 95.8793612207601 0 0 0 113.81604609503775,14.232714011567566 L 112.44007540134089,11.566873684374766 L 120.26566864077041,11.466422447473715 L 115.65067368663355,17.787167781157965 L 114.2747029929367,15.121327453965165 A 96.8793612207601 96.8793612207601 0 0 1 77.26887558442502,25.62716088103602"/><text text-anchor="middle" pointer-events="none" font-size="8px" fill="#000000" x="67.5700387432592" y="28.385643386257726" transform="rotate(180 67.5700387432592 25.385643386257726)" font-family="Helvetica Neue, Helvetica, Arial, sans-serif">trek</text></g><g class="relationship" transform="translate(19.8718393551218 -71.56477425128534) rotate(518.4211927120837)"><path class="b-outline" fill="#A5ABB6" stroke="none" d="M 25 0.5 L 61.030294651175325 0.5 L 61.030294651175325 -0.5 L 25 -0.5 Z M 80.36623215117532 0.5 L 116.39652680235065 0.5 L 116.39652680235065 3.5 L 123.39652680235065 0 L 116.39652680235065 -3.5 L 116.39652680235065 -0.5 L 80.36623215117532 -0.5 Z"/><text text-anchor="middle" pointer-events="none" font-size="8px" fill="#000000" x="70.69826340117532" y="3" transform="rotate(180 70.69826340117532 0)" font-family="Helvetica Neue, Helvetica, Arial, sans-serif">trek</text></g><g class="relationship" transform="translate(-118.12395851096424 -16.987407712553406) rotate(524.7063829648387)"><path class="b-outline" fill="#A5ABB6" stroke="none" d="M 25 0.5 L 62.50603666286894 0.5 L 62.50603666286894 -0.5 L 25 -0.5 Z M 81.84197416286894 0.5 L 119.34801082573787 0.5 L 119.34801082573787 3.5 L 126.34801082573787 0 L 119.34801082573787 -3.5 L 119.34801082573787 -0.5 L 81.84197416286894 -0.5 Z"/><text text-anchor="middle" pointer-events="none" font-size="8px" fill="#000000" x="72.17400541286894" y="3" transform="rotate(180 72.17400541286894 0)" font-family="Helvetica Neue, Helvetica, Arial, sans-serif">trek</text></g><g class="relationship" transform="translate(109.4289344436831 39.25202691091312) rotate(231.05643397325554)"><path class="b-outline" fill="#A5ABB6" stroke="none" d="M 25 0.5 L 56.73464297535517 0.5 L 56.73464297535517 -0.5 L 25 -0.5 Z M 78.74636172535517 0.5 L 110.48100470071034 0.5 L 110.48100470071034 3.5 L 117.48100470071034 0 L 110.48100470071034 -3.5 L 110.48100470071034 -0.5 L 78.74636172535517 -0.5 Z"/><text text-anchor="middle" pointer-events="none" font-size="8px" fill="#000000" x="67.74050235035517" y="3" transform="rotate(180 67.74050235035517 0)" font-family="Helvetica Neue, Helvetica, Arial, sans-serif">road</text></g><g class="relationship" transform="translate(109.4289344436831 39.25202691091312) rotate(231.05643397325554)"><path class="b-outline" fill="#A5ABB6" stroke="none" d="M 21.40063509461097,-12.933012701892217 L 21.90063509461097,-12.06698729810778 A 95.8793612207601 95.8793612207601 0 0 1 37.52389715011605,-19.30207263308894 L 37.186844231287495,-20.243558336596507 A 96.8793612207601 96.8793612207601 0 0 0 21.40063509461097,-12.933012701892217 Z M 98.16169886637456,-21.68025834256089 L 97.86936226542561,-20.72394285500168 A 95.8793612207601 95.8793612207601 0 0 1 113.81604609503775,-14.232714011567566 L 112.44007540134089,-11.566873684374766 L 120.26566864077041,-11.466422447473715 L 115.65067368663355,-17.787167781157965 L 114.2747029929367,-15.121327453965165 A 96.8793612207601 96.8793612207601 0 0 0 98.16169886637456,-21.68025834256089"/><text text-anchor="middle" pointer-events="none" font-size="8px" fill="#000000" x="67.57003874325922" y="-22.385643386257726" transform="rotate(180 67.57003874325922 -25.385643386257726)" font-family="Helvetica Neue, Helvetica, Arial, sans-serif">PublicTransport</text></g></g><g class="layer nodes"><g class="node" aria-label="graph-node1" transform="translate(109.4289344436831,39.25202691091312)"><circle class="b-outline" cx="0" cy="0" r="25" fill="#57C7E3" stroke="#23b3d7" stroke-width="2px"/><text class="caption" text-anchor="middle" pointer-events="none" x="0" y="5" font-size="10px" fill="#2A2C34" font-family="Helvetica Neue, Helvetica, Arial, sans-serif"> Darjeeling</text></g><g class="node" aria-label="graph-node3" transform="translate(-264.1122533097852,22.932990114124244)"><circle class="b-outline" cx="0" cy="0" r="25" fill="#D9C8AE" stroke="#c0a378" stroke-width="2px"/><text class="caption" text-anchor="middle" pointer-events="none" x="0" y="5" font-size="10px" fill="#2A2C34" font-family="Helvetica Neue, Helvetica, Arial, sans-serif"> Sandakp…</text></g><g class="node" aria-label="graph-node0" transform="translate(19.8718393551218,-71.56477425128534)"><circle class="b-outline" cx="0" cy="0" r="25" fill="#57C7E3" stroke="#23b3d7" stroke-width="2px"/><text class="caption" text-anchor="middle" pointer-events="none" x="0" y="5" font-size="10px" fill="#2A2C34" font-family="Helvetica Neue, Helvetica, Arial, sans-serif"> Rimbik</text></g><g class="node" aria-label="graph-node2" transform="translate(-118.12395851096424,-16.987407712553406)"><circle class="b-outline" cx="0" cy="0" r="25" fill="#F16667" stroke="#eb2728" stroke-width="2px"/><text class="caption" text-anchor="middle" pointer-events="none" x="0" y="5" font-size="10px" fill="#FFFFFF" font-family="Helvetica Neue, Helvetica, Arial, sans-serif"> BhikeBh…</text></g></g></svg>