<svg xmlns="http://www.w3.org/2000/svg" width="778.5792236328125" height="311.79669189453125" viewBox="-484.984375 -205.35374450683594 778.5792236328125 311.79669189453125"><title>Neo4j Graph Visualization</title><desc>Created using Neo4j (http://www.neo4j.com/)</desc><g class="layer relationships"><g class="relationship" transform="translate(-455.9843759574644 25.782216934143158) rotate(377.65461542501873)"><path class="outline" fill="#A5ABB6" stroke="none" d="M 24.018736134675446,-6.953439040707552 L 24.277555179777966,-5.987513214418485 A 191.52320733828404 191.52320733828404 0 0 1 60.672147156370954,-12.059794629703845 L 60.60335517108218,-13.057425655063412 A 192.52320733828404 192.52320733828404 0 0 0 24.018736134675446,-6.953439040707552 Z M 82.65884182410545,-13.311761005384113 L 82.61307366385152,-12.312808916689676 A 191.52320733828404 191.52320733828404 0 0 1 119.13801534464466,-7.081407389014165 L 118.42858789996005,-4.166495263284084 L 126.05771487879562,-5.911895372371753 L 120.08391860422414,-10.967956889987608 L 119.37449115953953,-8.053044764257526 A 192.52320733828404 192.52320733828404 0 0 0 82.65884182410545,-13.311761005384113"/><text text-anchor="middle" pointer-events="none" font-size="8px" fill="#000000" x="71.63321859914892" y="-10.000742082284518" font-family="sans-serif">road</text></g><g class="relationship" transform="translate(-312.7168458667232 71.37970761037286) rotate(361.354058282452)"><path class="outline" fill="#A5ABB6" stroke="none" d="M 21.40063509461097,-12.933012701892217 L 21.90063509461097,-12.06698729810778 A 87.8116757786626 87.8116757786626 0 0 1 40.868728800349324,-20.21604071454449 L 40.5847375889021,-21.174867597678627 A 88.8116757786626 88.8116757786626 0 0 0 21.40063509461097,-12.933012701892217 Z M 86.76123299290954,-22.32402707515726 L 86.5252869889045,-21.35226090822509 A 87.8116757786626 87.8116757786626 0 0 1 105.87524800650668,-14.156799906254093 L 104.50633750569033,-11.487327291531349 L 112.33216919099581,-11.407587506803035 L 107.70046200759516,-17.71609672588442 L 106.33155150677881,-15.046624111161677 A 88.8116757786626 88.8116757786626 0 0 0 86.76123299290954,-22.32402707515726"/><text text-anchor="middle" pointer-events="none" font-size="8px" fill="#000000" x="63.609407419740556" y="-21.304186981519962" font-family="sans-serif">twowheeler</text></g><g class="relationship" transform="translate(-178.17665119031093 74.55985786756565) rotate(280.86791175663177)"><path class="outline" fill="#A5ABB6" stroke="none" d="M 21.40063509461097,12.933012701892217 L 21.90063509461097,12.06698729810778 A 210.13312897439394 210.13312897439394 0 0 0 101.04443712638279,38.614396583448155 L 100.9210736063993,39.60675813144226 A 211.13312897439394 211.13312897439394 0 0 1 21.40063509461097,12.933012701892217 Z M 147.39767574641544,40.22867738148986 L 147.30090989889615,39.233370207420535 A 210.13312897439394 210.13312897439394 0 0 0 227.1267266454344,14.813187559541763 L 225.69678276815316,12.175904770793855 L 233.51871046539304,11.916198977343566 L 229.03331848180935,18.32956461120564 L 227.6033746045281,15.692281822457733 A 211.13312897439394 211.13312897439394 0 0 1 147.39767574641544,40.22867738148986"/><text text-anchor="middle" pointer-events="none" font-size="8px" fill="#000000" x="124.14889822179279" y="43.7006329225793" font-family="sans-serif">twowheeler</text></g><g class="relationship" transform="translate(-130.00402468563294 -176.35374943119444) rotate(367.9646030629141)"><path class="outline" fill="#A5ABB6" stroke="none" d="M 25 0.5 L 186.0532013221515 0.5 L 186.0532013221515 -0.5 L 25 -0.5 Z M 205.3891388221515 0.5 L 366.442340144303 0.5 L 366.442340144303 3.5 L 373.442340144303 0 L 366.442340144303 -3.5 L 366.442340144303 -0.5 L 205.3891388221515 -0.5 Z"/><text text-anchor="middle" pointer-events="none" font-size="8px" fill="#000000" x="195.7211700721515" y="3" font-family="sans-serif">trek</text></g><g class="relationship" transform="translate(-178.17665119031093 74.55985786756565) rotate(280.86791175663177)"><path class="outline" fill="#A5ABB6" stroke="none" d="M 25 0.5 L 113.24217414414619 0.5 L 113.24217414414619 -0.5 L 25 -0.5 Z M 135.2538928941462 0.5 L 223.49606703829238 0.5 L 223.49606703829238 3.5 L 230.49606703829238 0 L 223.49606703829238 -3.5 L 223.49606703829238 -0.5 L 135.2538928941462 -0.5 Z"/><text text-anchor="middle" pointer-events="none" font-size="8px" fill="#000000" x="124.24803351914619" y="3" font-family="sans-serif">road</text></g><g class="relationship" transform="translate(-178.17665119031093 74.55985786756565) rotate(280.86791175663177)"><path class="outline" fill="#A5ABB6" stroke="none" d="M 21.40063509461097,-12.933012701892217 L 21.90063509461097,-12.06698729810778 A 210.13312897439394 210.13312897439394 0 0 1 114.51777989778152,-39.85037884686798 L 114.45853450537344,-40.84862229587148 A 211.13312897439394 211.13312897439394 0 0 0 21.40063509461097,-12.933012701892217 Z M 133.83183235760782,-41.10786299584589 L 133.79931906701648,-40.10839169263858 A 210.13312897439394 210.13312897439394 0 0 1 227.1267266454344,-14.813187559541763 L 225.69678276815316,-12.175904770793855 L 233.51871046539304,-11.916198977343566 L 229.03331848180935,-18.32956461120564 L 227.6033746045281,-15.692281822457733 A 211.13312897439394 211.13312897439394 0 0 0 133.83183235760782,-41.10786299584589"/><text text-anchor="middle" pointer-events="none" font-size="8px" fill="#000000" x="124.1488982217928" y="-37.7006329225793" font-family="sans-serif">trek</text></g><g class="relationship" transform="translate(-312.7168458667232 71.37970761037286) rotate(361.354058282452)"><path class="outline" fill="#A5ABB6" stroke="none" d="M 25 0.5 L 52.78302778184268 0.5 L 52.78302778184268 -0.5 L 25 -0.5 Z M 74.79474653184268 0.5 L 102.57777431368535 0.5 L 102.57777431368535 3.5 L 109.57777431368535 0 L 102.57777431368535 -3.5 L 102.57777431368535 -0.5 L 74.79474653184268 -0.5 Z"/><text text-anchor="middle" pointer-events="none" font-size="8px" fill="#000000" x="63.78888715684268" y="3" font-family="sans-serif">road</text></g><g class="relationship" transform="translate(-312.7168458667232 71.37970761037286) rotate(361.354058282452)"><path class="outline" fill="#A5ABB6" stroke="none" d="M 21.40063509461097,12.933012701892217 L 21.90063509461097,12.06698729810778 A 87.8116757786626 87.8116757786626 0 0 0 54.04385419259732,23.04013722412907 L 53.90990140457636,24.03112493877613 A 88.8116757786626 88.8116757786626 0 0 1 21.40063509461097,12.933012701892217 Z M 73.31048914091879,24.51393267615022 L 73.2259955640193,23.51750865222128 A 87.8116757786626 87.8116757786626 0 0 0 105.87524800650668,14.156799906254093 L 104.50633750569033,11.487327291531349 L 112.33216919099581,11.407587506803035 L 107.70046200759516,17.71609672588442 L 106.33155150677881,15.046624111161677 A 88.8116757786626 88.8116757786626 0 0 1 73.31048914091879,24.51393267615022"/><text text-anchor="middle" pointer-events="none" font-size="8px" fill="#000000" x="63.60940741974057" y="27.304186981519962" font-family="sans-serif">trek</text></g><g class="relationship" transform="translate(-455.9843759574644 25.782216934143158) rotate(377.65461542501873)"><path class="outline" fill="#A5ABB6" stroke="none" d="M 24.018736134675446,6.953439040707552 L 24.277555179777966,5.987513214418485 A 191.52320733828404 191.52320733828404 0 0 0 62.00370195279302,12.146952789676845 L 61.941862413711306,13.145038893881377 A 192.52320733828404 192.52320733828404 0 0 1 24.018736134675446,6.953439040707552 Z M 81.31867014310781,13.368484753838288 L 81.27986307445174,12.369238031840979 A 191.52320733828404 191.52320733828404 0 0 0 119.13801534464466,7.081407389014165 L 118.42858789996005,4.166495263284084 L 126.05771487879562,5.911895372371753 L 120.08391860422414,10.967956889987608 L 119.37449115953953,8.053044764257526 A 192.52320733828404 192.52320733828404 0 0 1 81.31867014310781,13.368484753838288"/><text text-anchor="middle" pointer-events="none" font-size="8px" fill="#000000" x="71.63321859914892" y="16.000742082284518" font-family="sans-serif">trek</text></g><g class="relationship" transform="translate(-455.9843759574644 25.782216934143158) rotate(325.857946673289)"><path class="outline" fill="#A5ABB6" stroke="none" d="M 21.40063509461097,12.933012701892217 L 21.90063509461097,12.06698729810778 A 190.81661181794126 190.81661181794126 0 0 0 104.91960418409768,37.22893373556656 L 104.8546762058601,38.22682368823769 A 191.81661181794126 191.81661181794126 0 0 1 21.40063509461097,12.933012701892217 Z M 124.23087729006609,38.506631876856005 L 124.19479107093792,37.50728319657017 A 190.81661181794126 190.81661181794126 0 0 0 207.90570893941057,14.753052670785811 L 206.48135546610393,12.112746403876733 L 214.30381580774952,11.869612277555198 L 209.8048469038194,18.27346102666458 L 208.38049343051276,15.633154759755504 A 191.81661181794126 191.81661181794126 0 0 1 124.23087729006609,38.506631876856005"/><text text-anchor="middle" pointer-events="none" font-size="8px" fill="#000000" x="114.54646070400317" y="41.11162062013537" font-family="sans-serif">trek</text></g><g class="relationship" transform="translate(-260.4057365661774 -106.84393201968898) rotate(466.3576952806204)"><path class="outline" fill="#A5ABB6" stroke="none" d="M 25 0.5 L 79.70306801502136 0.5 L 79.70306801502136 -0.5 L 25 -0.5 Z M 99.03900551502136 0.5 L 153.74207353004272 0.5 L 153.74207353004272 3.5 L 160.74207353004272 0 L 153.74207353004272 -3.5 L 153.74207353004272 -0.5 L 99.03900551502136 -0.5 Z"/><text text-anchor="middle" pointer-events="none" font-size="8px" fill="#000000" x="89.37103676502136" y="3" transform="rotate(180 89.37103676502136 0)" font-family="sans-serif">trek</text></g><g class="relationship" transform="translate(-260.4057365661774 -106.84393201968898) rotate(377.31202682065964)"><path class="outline" fill="#A5ABB6" stroke="none" d="M 24.018736134675446,-6.953439040707552 L 24.277555179777966,-5.987513214418485 A 327.9571391311699 327.9571391311699 0 0 1 83.37002496845416,-16.146840246664908 L 83.29138943740847,-17.14374367892765 A 328.9571391311699 328.9571391311699 0 0 0 24.018736134675446,-6.953439040707552 Z M 129.78668960885503,-17.515008372471584 L 129.7239836256407,-16.516976329063596 A 327.9571391311699 327.9571391311699 0 0 1 188.97115239472475,-7.302590602309308 L 188.24106878829463,-4.392783404637614 L 195.88238312369705,-6.084030053584314 L 189.94459720329826,-11.182333532538232 L 189.21451359686813,-8.272526334866539 A 328.9571391311699 328.9571391311699 0 0 0 129.78668960885503,-17.515008372471584"/><text text-anchor="middle" pointer-events="none" font-size="8px" fill="#000000" x="106.53646408322261" y="-14.65191100877604" font-family="sans-serif">twowheeler</text></g><g class="relationship" transform="translate(-50.24724592815841 -41.338454784708304) rotate(410.70099355861015)"><path class="outline" fill="#A5ABB6" stroke="none" d="M 24.018736134675446,-6.953439040707552 L 24.277555179777966,-5.987513214418485 A 195.39597842994746 195.39597842994746 0 0 1 49.52286609402611,-10.99710301736286 L 49.39324781916001,-11.988666985456064 A 196.39597842994746 196.39597842994746 0 0 0 24.018736134675446,-6.953439040707552 Z M 95.86455148320843,-12.517918603222029 L 95.75754931382941,-11.523659816110637 A 195.39597842994746 195.39597842994746 0 0 1 121.11040369157409,-7.090321564669327 L 120.40014371085086,-4.1756121863979665 L 128.0297689043278,-5.9188331726936605 L 122.05741699920507,-10.976600735697808 L 121.34715701848184,-8.061891357426447 A 196.39597842994746 196.39597842994746 0 0 0 95.86455148320843,-12.517918603222029"/><text text-anchor="middle" pointer-events="none" font-size="8px" fill="#000000" x="72.61888351351065" y="-10.132766677354908" font-family="sans-serif">twowheeler</text></g><g class="relationship" transform="translate(46.226659908889005 76.53379569932162) rotate(294.1840151634555)"><path class="outline" fill="#A5ABB6" stroke="none" d="M 25 0.5 L 72.01367131195738 0.5 L 72.01367131195738 -0.5 L 25 -0.5 Z M 91.34960881195738 0.5 L 138.36328012391476 0.5 L 138.36328012391476 3.5 L 145.36328012391476 0 L 138.36328012391476 -3.5 L 138.36328012391476 -0.5 L 91.34960881195738 -0.5 Z"/><text text-anchor="middle" pointer-events="none" font-size="8px" fill="#000000" x="81.68164006195738" y="3" font-family="sans-serif">trek</text></g><g class="relationship" transform="translate(116.01913739038619 -78.87745647237337) rotate(344.11972980669907)"><path class="outline" fill="#A5ABB6" stroke="none" d="M 25 0.5 L 64.06755306431887 0.5 L 64.06755306431887 -0.5 L 25 -0.5 Z M 83.40349056431887 0.5 L 122.47104362863774 0.5 L 122.47104362863774 3.5 L 129.47104362863774 0 L 122.47104362863774 -3.5 L 122.47104362863774 -0.5 L 83.40349056431887 -0.5 Z"/><text text-anchor="middle" pointer-events="none" font-size="8px" fill="#000000" x="73.73552181431887" y="3" font-family="sans-serif">trek</text></g><g class="relationship" transform="translate(46.226659908889005 76.53379569932162) rotate(329.43887847021824)"><path class="outline" fill="#A5ABB6" stroke="none" d="M 21.40063509461097,12.933012701892217 L 21.90063509461097,12.06698729810778 A 78.545697890361 78.545697890361 0 0 0 36.428117876879654,18.590333018879818 L 36.113073681875456,19.539410020599988 A 79.545697890361 79.545697890361 0 0 1 21.40063509461097,12.933012701892217 Z M 82.18523595647775,20.76484727296608 L 81.92108902617302,19.800364821487264 A 78.545697890361 78.545697890361 0 0 0 96.77480433561115,14.058506508363427 L 95.41503589817817,11.384365562833242 L 103.24109461475375,11.331403645274838 L 98.58782891885512,17.62402776907034 L 97.22806048142215,14.949886823540156 A 79.545697890361 79.545697890361 0 0 1 82.18523595647775,20.76484727296608"/><text text-anchor="middle" pointer-events="none" font-size="8px" fill="#000000" x="59.07175293510053" y="26.062169251985452" font-family="sans-serif">twowheeler</text></g><g class="relationship" transform="translate(154.31515483540895 12.709394832219512) rotate(309.4843556465788)"><path class="outline" fill="#A5ABB6" stroke="none" d="M 24.018736134675446,6.953439040707552 L 24.277555179777966,5.987513214418485 A 236.79904730006717 236.79904730006717 0 0 0 60.05102962125029,12.67765678767205 L 59.943281599656316,13.6718350231221 A 237.79904730006717 237.79904730006717 0 0 1 24.018736134675446,6.953439040707552 Z M 106.42933013877715,14.139223491135084 L 106.34159357341875,13.143079779063811 A 236.79904730006717 236.79904730006717 0 0 0 142.24235293645262,7.173576298626551 L 141.52431760101314,4.260772622259003 L 149.1585674038835,5.983627795329014 L 143.19973338370528,11.057314533783282 L 142.4816980482658,8.144510857415733 A 237.79904730006717 237.79904730006717 0 0 1 106.42933013877715,14.139223491135084"/><text text-anchor="middle" pointer-events="none" font-size="8px" fill="#000000" x="83.17988391062583" y="17.544251645899408" font-family="sans-serif">twowheeler</text></g><g class="relationship" transform="translate(154.31515483540895 12.709394832219512) rotate(309.4843556465788)"><path class="outline" fill="#A5ABB6" stroke="none" d="M 24.018736134675446,-6.953439040707552 L 24.277555179777966,-5.987513214418485 A 236.79904730006717 236.79904730006717 0 0 1 73.54244479855679,-13.75081532189651 L 73.49167088784348,-14.749525495065313 A 237.79904730006717 237.79904730006717 0 0 0 24.018736134675446,-6.953439040707552 Z M 92.86201097114197,-14.944282284703036 L 92.83132812118602,-13.944753114183953 A 236.79904730006717 236.79904730006717 0 0 1 142.24235293645262,-7.173576298626551 L 141.52431760101314,-4.260772622259003 L 149.1585674038835,-5.983627795329014 L 143.19973338370528,-11.057314533783282 L 142.4816980482658,-8.144510857415733 A 237.79904730006717 237.79904730006717 0 0 0 92.86201097114197,-14.944282284703036"/><text text-anchor="middle" pointer-events="none" font-size="8px" fill="#000000" x="83.17988391062582" y="-11.544251645899408" font-family="sans-serif">trek</text></g><g class="relationship" transform="translate(46.226659908889005 76.53379569932162) rotate(329.43887847021824)"><path class="outline" fill="#A5ABB6" stroke="none" d="M 25 0.5 L 48.25694187208598 0.5 L 48.25694187208598 -0.5 L 25 -0.5 Z M 70.26866062208597 0.5 L 93.52560249417196 0.5 L 93.52560249417196 3.5 L 100.52560249417196 0 L 93.52560249417196 -3.5 L 93.52560249417196 -0.5 L 70.26866062208597 -0.5 Z"/><text text-anchor="middle" pointer-events="none" font-size="8px" fill="#000000" x="59.26280124708598" y="3" font-family="sans-serif">road</text></g><g class="relationship" transform="translate(46.226659908889005 76.53379569932162) rotate(329.43887847021824)"><path class="outline" fill="#A5ABB6" stroke="none" d="M 21.40063509461097,-12.933012701892217 L 21.90063509461097,-12.06698729810778 A 78.545697890361 78.545697890361 0 0 1 49.52115639136248,-21.720990080657785 L 49.37280545730249,-22.709924861299825 A 79.545697890361 79.545697890361 0 0 0 21.40063509461097,-12.933012701892217 Z M 68.77571167930117,-23.226007521950436 L 68.68014110991616,-22.23058486485074 A 78.545697890361 78.545697890361 0 0 1 96.77480433561115,-14.058506508363427 L 95.41503589817817,-11.384365562833242 L 103.24109461475375,-11.331403645274838 L 98.58782891885512,-17.62402776907034 L 97.22806048142215,-14.949886823540156 A 79.545697890361 79.545697890361 0 0 0 68.77571167930117,-23.226007521950436"/><text text-anchor="middle" pointer-events="none" font-size="8px" fill="#000000" x="59.0717529351005" y="-20.062169251985452" font-family="sans-serif">trek</text></g><g class="relationship" transform="translate(-50.24724592815841 -41.338454784708304) rotate(410.70099355861015)"><path class="outline" fill="#A5ABB6" stroke="none" d="M 24.018736134675446,6.953439040707552 L 24.277555179777966,5.987513214418485 A 195.39597842994746 195.39597842994746 0 0 0 62.98853367651089,12.285128546906378 L 62.92783016483841,13.283284388281174 A 196.39597842994746 196.39597842994746 0 0 1 24.018736134675446,6.953439040707552 Z M 82.30399526124901,13.503955338197045 L 82.2660401076509,12.504675894640172 A 195.39597842994746 195.39597842994746 0 0 0 121.11040369157409,7.090321564669327 L 120.40014371085086,4.1756121863979665 L 128.0297689043278,5.9188331726936605 L 122.05741699920507,10.976600735697808 L 121.34715701848184,8.061891357426447 A 196.39597842994746 196.39597842994746 0 0 1 82.30399526124901,13.503955338197045"/><text text-anchor="middle" pointer-events="none" font-size="8px" fill="#000000" x="72.61888351351074" y="16.13276667735491" font-family="sans-serif">trek</text></g><g class="relationship" transform="translate(-50.24724592815841 -41.338454784708304) rotate(374.80003455511155)"><path class="outline" fill="#A5ABB6" stroke="none" d="M 24.018736134675446,-6.953439040707552 L 24.277555179777966,-5.987513214418485 A 311.30070693314633 311.30070693314633 0 0 1 79.09939238231206,-15.528119166737895 L 79.01667906386407,-16.524692549360225 A 312.30070693314633 312.30070693314633 0 0 0 24.018736134675446,-6.953439040707552 Z M 125.51138172297797,-16.910488354462757 L 125.44521704779058,-15.912679637444683 A 311.30070693314633 311.30070693314633 0 0 1 180.41782365352822,-7.283107274378594 L 179.6895594856431,-4.372844176001649 L 187.32981491105528,-6.068868065709444 L 181.38884254404172,-11.163458072214521 L 180.6605783761566,-8.253194973837576 A 312.30070693314633 312.30070693314633 0 0 0 125.51138172297797,-16.910488354462757"/><text text-anchor="middle" pointer-events="none" font-size="8px" fill="#000000" x="102.26098928043317" y="-14.084094292163286" font-family="sans-serif">twowheeler</text></g><g class="relationship" transform="translate(-50.24724592815841 -41.338454784708304) rotate(374.80003455511155)"><path class="outline" fill="#A5ABB6" stroke="none" d="M 24.018736134675446,6.953439040707552 L 24.277555179777966,5.987513214418485 A 311.30070693314633 311.30070693314633 0 0 0 92.61579304789642,16.35440521311733 L 92.57649884275128,17.353632897602722 A 312.30070693314633 312.30070693314633 0 0 1 24.018736134675446,6.953439040707552 Z M 111.93967348809274,17.51430134205782 L 111.91696599354435,16.51455919045503 A 311.30070693314633 311.30070693314633 0 0 0 180.41782365352822,7.283107274378594 L 179.6895594856431,4.372844176001649 L 187.32981491105528,6.068868065709444 L 181.38884254404172,11.163458072214521 L 180.6605783761566,8.253194973837576 A 312.30070693314633 312.30070693314633 0 0 1 111.93967348809274,17.51430134205782"/><text text-anchor="middle" pointer-events="none" font-size="8px" fill="#000000" x="102.26098928043325" y="20.084094292163286" font-family="sans-serif">trek</text></g><g class="relationship" transform="translate(-260.4057365661774 -106.84393201968898) rotate(377.31202682065964)"><path class="outline" fill="#A5ABB6" stroke="none" d="M 24.018736134675446,6.953439040707552 L 24.277555179777966,5.987513214418485 A 327.9571391311699 327.9571391311699 0 0 0 96.89004079175483,16.93280489204369 L 96.85263020814926,17.932104871146237 A 328.9571391311699 328.9571391311699 0 0 1 24.018736134675446,6.953439040707552 Z M 116.21458874468665,18.08670999415807 L 116.19314072261588,17.086940029441564 A 327.9571391311699 327.9571391311699 0 0 0 188.97115239472475,7.302590602309308 L 188.24106878829463,4.392783404637614 L 195.88238312369705,6.084030053584314 L 189.94459720329826,11.182333532538232 L 189.21451359686813,8.272526334866539 A 328.9571391311699 328.9571391311699 0 0 1 116.21458874468665,18.08670999415807"/><text text-anchor="middle" pointer-events="none" font-size="8px" fill="#000000" x="106.53646408322261" y="20.65191100877604" font-family="sans-serif">trek</text></g><g class="relationship" transform="translate(-260.4057365661774 -106.84393201968898) rotate(331.94043222150117)"><path class="outline" fill="#A5ABB6" stroke="none" d="M 25 0.5 L 60.71745129001425 0.5 L 60.71745129001425 -0.5 L 25 -0.5 Z M 80.05338879001425 0.5 L 115.7708400800285 0.5 L 115.7708400800285 3.5 L 122.7708400800285 0 L 115.7708400800285 -3.5 L 115.7708400800285 -0.5 L 80.05338879001425 -0.5 Z"/><text text-anchor="middle" pointer-events="none" font-size="8px" fill="#000000" x="70.38542004001425" y="3" font-family="sans-serif">trek</text></g><g class="relationship" transform="translate(-455.9843759574644 25.782216934143158) rotate(325.857946673289)"><path class="outline" fill="#A5ABB6" stroke="none" d="M 25 0.5 L 103.6473246409959 0.5 L 103.6473246409959 -0.5 L 25 -0.5 Z M 125.6590433909959 0.5 L 204.3063680319918 0.5 L 204.3063680319918 3.5 L 211.3063680319918 0 L 204.3063680319918 -3.5 L 204.3063680319918 -0.5 L 125.6590433909959 -0.5 Z"/><text text-anchor="middle" pointer-events="none" font-size="8px" fill="#000000" x="114.6531840159959" y="3" font-family="sans-serif">road</text></g><g class="relationship" transform="translate(-455.9843759574644 25.782216934143158) rotate(325.857946673289)"><path class="outline" fill="#A5ABB6" stroke="none" d="M 21.40063509461097,-12.933012701892217 L 21.90063509461097,-12.06698729810778 A 190.81661181794126 190.81661181794126 0 0 1 83.94337108605515,-34.69182349074802 L 83.76851435005274,-35.67641737752297 A 191.81661181794126 191.81661181794126 0 0 0 21.40063509461097,-12.933012701892217 Z M 145.3818910282668,-36.56616492133031 L 145.2355379582244,-35.57693250228556 A 190.81661181794126 190.81661181794126 0 0 1 207.90570893941057,-14.753052670785811 L 206.48135546610393,-12.112746403876733 L 214.30381580774952,-11.869612277555198 L 209.8048469038194,-18.27346102666458 L 208.38049343051276,-15.633154759755504 A 191.81661181794126 191.81661181794126 0 0 0 145.3818910282668,-36.56616492133031"/><text text-anchor="middle" pointer-events="none" font-size="8px" fill="#000000" x="114.54646070400321" y="-35.1116206201354" font-family="sans-serif">PublicTransport</text></g></g><g class="layer nodes"><g class="node" aria-label="graph-node1" transform="translate(-455.9843759574644,25.782216934143158)"><circle class="outline" cx="0" cy="0" r="25" fill="#57C7E3" stroke="#23b3d7" stroke-width="2px"/><text class="caption" text-anchor="middle" pointer-events="none" x="0" y="5" font-size="10px" fill="#2A2C34" font-family="sans-serif"> Darjeeling</text></g><g class="node" aria-label="graph-node3" transform="translate(264.5948848398976,-121.14506333081178)"><circle class="outline" cx="0" cy="0" r="25" fill="#D9C8AE" stroke="#c0a378" stroke-width="2px"/><text class="caption" text-anchor="middle" pointer-events="none" x="0" y="5" font-size="10px" fill="#2A2C34" font-family="sans-serif"> Sandakp…</text></g><g class="node" aria-label="graph-node6" transform="translate(-312.7168458667232,71.37970761037286)"><circle class="outline" cx="0" cy="0" r="25" fill="#F16667" stroke="#eb2728" stroke-width="2px"/><text class="caption" text-anchor="middle" pointer-events="none" x="0" y="5" font-size="10px" fill="#FFFFFF" font-family="sans-serif"> Tumbling</text></g><g class="node" aria-label="graph-node7" transform="translate(-178.17665119031093,74.55985786756565)"><circle class="outline" cx="0" cy="0" r="25" fill="#F16667" stroke="#eb2728" stroke-width="2px"/><text class="caption" text-anchor="middle" pointer-events="none" x="0" y="5" font-size="10px" fill="#FFFFFF" font-family="sans-serif"> Gairibus</text></g><g class="node" aria-label="graph-node2" transform="translate(-130.00402468563294,-176.35374943119444)"><circle class="outline" cx="0" cy="0" r="25" fill="#F16667" stroke="#eb2728" stroke-width="2px"/><text class="caption" text-anchor="middle" pointer-events="none" x="0" y="5" font-size="10px" fill="#FFFFFF" font-family="sans-serif"> BhikeBh…</text></g><g class="node" aria-label="graph-node0" transform="translate(-260.4057365661774,-106.84393201968898)"><circle class="outline" cx="0" cy="0" r="25" fill="#57C7E3" stroke="#23b3d7" stroke-width="2px"/><text class="caption" text-anchor="middle" pointer-events="none" x="0" y="5" font-size="10px" fill="#2A2C34" font-family="sans-serif"> Rimbik</text></g><g class="node" aria-label="graph-node4" transform="translate(-50.24724592815841,-41.338454784708304)"><circle class="outline" cx="0" cy="0" r="25" fill="#F16667" stroke="#eb2728" stroke-width="2px"/><text class="caption" text-anchor="middle" pointer-events="none" x="0" y="5" font-size="10px" fill="#FFFFFF" font-family="sans-serif"> Sirikhola</text></g><g class="node" aria-label="graph-node8" transform="translate(46.226659908889005,76.53379569932162)"><circle class="outline" cx="0" cy="0" r="25" fill="#F16667" stroke="#eb2728" stroke-width="2px"/><text class="caption" text-anchor="middle" pointer-events="none" x="0" y="5" font-size="10px" fill="#FFFFFF" font-family="sans-serif"> Rammam</text></g><g class="node" aria-label="graph-node9" transform="translate(116.01913739038619,-78.87745647237337)"><circle class="outline" cx="0" cy="0" r="25" fill="#D9C8AE" stroke="#c0a378" stroke-width="2px"/><text class="caption" text-anchor="middle" pointer-events="none" x="0" y="5" font-size="10px" fill="#2A2C34" font-family="sans-serif"> Sabargr…</text></g><g class="node" aria-label="graph-node5" transform="translate(154.31515483540895,12.709394832219512)"><circle class="outline" cx="0" cy="0" r="25" fill="#F16667" stroke="#eb2728" stroke-width="2px"/><text class="caption" text-anchor="middle" pointer-events="none" x="0" y="5" font-size="10px" fill="#FFFFFF" font-family="sans-serif"> Gurdum</text></g></g></svg>