<svg xmlns="http://www.w3.org/2000/svg" width="372.57794189453125" height="79.31354522705078" viewBox="-407.2059326171875 -28.131261825561523 372.57794189453125 79.31354522705078"><title>Neo4j Graph Visualization</title><desc>Created using Neo4j (http://www.neo4j.com/)</desc><g class="layer relationships"><g class="relationship" transform="translate(-378.2059465389682 22.182283385773275) rotate(356.2429859266297)"><path class="outline" fill="#A5ABB6" stroke="none" d="M 24.018736134675446,-6.953439040707552 L 24.277555179777966,-5.987513214418485 A 224.19376902929585 224.19376902929585 0 0 1 55.52382868015049,-12.021624448545055 L 55.40438136529569,-13.014464989102294 A 225.19376902929585 225.19376902929585 0 0 0 24.018736134675446,-6.953439040707552 Z M 104.53413597073798,-13.526731873481566 L 104.43541670479785,-12.531616550249026 A 224.19376902929585 224.19376902929585 0 0 1 135.80071629857335,-7.150344633815064 L 135.08485058831303,-4.237006980045166 L 142.71781510907982,-5.965547585502646 L 136.75520391225376,-11.034794838841595 L 136.03933820199344,-8.121457185071696 A 225.19376902929585 225.19376902929585 0 0 0 104.53413597073798,-13.526731873481566"/><text text-anchor="middle" pointer-events="none" font-size="8px" fill="#000000" x="79.96045928006525" y="-11.114517458506015" font-family="sans-serif">CHEAPEST</text></g><g class="relationship selected" transform="translate(-211.56920641864113 11.23984715782314) rotate(355.98995966402344)"><path class="outline" fill="#A5ABB6" stroke="none" d="M 25 0.5 L 46.09160110792929 0.5 L 46.09160110792929 -0.5 L 25 -0.5 Z M 95.21269485792929 0.5 L 116.30429596585859 0.5 L 116.30429596585859 3.5 L 123.30429596585859 0 L 116.30429596585859 -3.5 L 116.30429596585859 -0.5 L 95.21269485792929 -0.5 Z"/><text text-anchor="middle" pointer-events="none" font-size="8px" fill="#000000" x="70.65214798292929" y="3" font-family="sans-serif">CHEAPEST</text></g><g class="relationship" transform="translate(-211.56920641864113 11.23984715782314) rotate(536.2429859266297)"><path class="outline" fill="#A5ABB6" stroke="none" d="M 24.018736134675446,-6.953439040707552 L 24.277555179777966,-5.987513214418485 A 224.19376902929585 224.19376902929585 0 0 1 55.52382868015049,-12.021624448545055 L 55.40438136529569,-13.014464989102294 A 225.19376902929585 225.19376902929585 0 0 0 24.018736134675446,-6.953439040707552 Z M 104.53413597073798,-13.526731873481566 L 104.43541670479785,-12.531616550249026 A 224.19376902929585 224.19376902929585 0 0 1 135.80071629857335,-7.150344633815064 L 135.08485058831303,-4.237006980045166 L 142.71781510907982,-5.965547585502646 L 136.75520391225376,-11.034794838841595 L 136.03933820199344,-8.121457185071696 A 225.19376902929585 225.19376902929585 0 0 0 104.53413597073798,-13.526731873481566"/><text text-anchor="middle" pointer-events="none" font-size="8px" fill="#000000" x="79.96045928006525" y="-11.114517458506015" transform="rotate(180 79.96045928006525 -14.114517458506015)" font-family="sans-serif">CHEAPEST</text></g></g><g class="layer nodes"><g class="node" aria-label="graph-node21" transform="translate(-378.2059465389682,22.182283385773275)"><circle class="outline" cx="0" cy="0" r="25" fill="#ECB5C9" stroke="#da7298" stroke-width="2px"/><text class="caption" text-anchor="middle" pointer-events="none" x="0" y="5" font-size="10px" fill="#2A2C34" font-family="sans-serif"> MSN</text></g><g class="node" aria-label="graph-node68" transform="translate(-63.62798739383075,0.8687375073538027)"><circle class="outline" cx="0" cy="0" r="25" fill="#ECB5C9" stroke="#da7298" stroke-width="2px"/><text class="caption" text-anchor="middle" pointer-events="none" x="0" y="5" font-size="10px" fill="#2A2C34" font-family="sans-serif"> GRR</text></g><g class="node" aria-label="graph-node7" transform="translate(-211.56920641864113,11.23984715782314)"><circle class="outline" cx="0" cy="0" r="25" fill="#ECB5C9" stroke="#da7298" stroke-width="2px"/><text class="caption" text-anchor="middle" pointer-events="none" x="0" y="5" font-size="10px" fill="#2A2C34" font-family="sans-serif"> ORD</text></g></g></svg>