<svg xmlns="http://www.w3.org/2000/svg" width="423.6021423339844" height="168.3565216064453" viewBox="-274.1095275878906 -111.72600555419922 423.6021423339844 168.3565216064453"><title>Neo4j Graph Visualization</title><desc>Created using Neo4j (http://www.neo4j.com/)</desc><g class="layer relationships"><g class="relationship" transform="translate(120.49261250971391 27.630517509982646) rotate(231.11769301209898)"><path class="b-outline" fill="#A5ABB6" stroke="none" d="M 21.40063509461097,12.933012701892217 L 21.90063509461097,12.06698729810778 A 95.15102956554156 95.15102956554156 0 0 0 37.17669366413536,19.164971538818563 L 36.83723904802952,20.105593972956953 A 96.15102956554156 96.15102956554156 0 0 1 21.40063509461097,12.933012701892217 Z M 97.79828602225984,21.548908365263387 L 97.50372717798277,20.593275021737668 A 95.15102956554156 95.15102956554156 0 0 0 113.098584847859,14.22619092010834 L 111.72322080283531,11.560037559242526 L 119.54883669738318,11.461367041864039 L 114.93240357455726,17.781062067929426 L 113.55703952953357,15.114908707063613 A 96.15102956554156 96.15102956554156 0 0 1 97.79828602225984,21.548908365263387"/><text text-anchor="middle" pointer-events="none" font-size="8px" fill="#000000" x="67.21214954841992" y="28.28801057062148" transform="rotate(180 67.21214954841992 25.28801057062148)" font-family="Helvetica Neue, Helvetica, Arial, sans-serif">PublicTransport</text></g><g class="relationship" transform="translate(31.502384999249603 -82.7259943413976) rotate(523.5365050498856)"><path class="b-outline" fill="#A5ABB6" stroke="none" d="M 25 0.5 L 60.073200882392186 0.5 L 60.073200882392186 -0.5 L 25 -0.5 Z M 79.40913838239219 0.5 L 114.48233926478437 0.5 L 114.48233926478437 3.5 L 121.48233926478437 0 L 114.48233926478437 -3.5 L 114.48233926478437 -0.5 L 79.40913838239219 -0.5 Z"/><text text-anchor="middle" pointer-events="none" font-size="8px" fill="#000000" x="69.74116963239219" y="3" transform="rotate(180 69.74116963239219 0)" font-family="Helvetica Neue, Helvetica, Arial, sans-serif">trek</text></g><g class="relationship" transform="translate(-108.9742509937351 -41.21225617464291) rotate(514.7707679180769)"><path class="b-outline" fill="#A5ABB6" stroke="none" d="M 25 0.5 L 62.077331555369156 0.5 L 62.077331555369156 -0.5 L 25 -0.5 Z M 81.41326905536916 0.5 L 118.49060061073831 0.5 L 118.49060061073831 3.5 L 125.49060061073831 0 L 118.49060061073831 -3.5 L 118.49060061073831 -0.5 L 81.41326905536916 -0.5 Z"/><text text-anchor="middle" pointer-events="none" font-size="8px" fill="#000000" x="71.74530030536916" y="3" transform="rotate(180 71.74530030536916 0)" font-family="Helvetica Neue, Helvetica, Arial, sans-serif">trek</text></g><g class="relationship" transform="translate(120.49261250971391 27.630517509982646) rotate(231.11769301209898)"><path class="b-outline" fill="#A5ABB6" stroke="none" d="M 25 0.5 L 57.71542193563246 0.5 L 57.71542193563246 -0.5 L 25 -0.5 Z M 77.05135943563246 0.5 L 109.76678137126493 0.5 L 109.76678137126493 3.5 L 116.76678137126493 0 L 109.76678137126493 -3.5 L 109.76678137126493 -0.5 L 77.05135943563246 -0.5 Z"/><text text-anchor="middle" pointer-events="none" font-size="8px" fill="#000000" x="67.38339068563246" y="3" transform="rotate(180 67.38339068563246 0)" font-family="Helvetica Neue, Helvetica, Arial, sans-serif">trek</text></g><g class="relationship" transform="translate(120.49261250971391 27.630517509982646) rotate(231.11769301209898)"><path class="b-outline" fill="#A5ABB6" stroke="none" d="M 21.40063509461097,-12.933012701892217 L 21.90063509461097,-12.06698729810778 A 95.15102956554156 95.15102956554156 0 0 1 56.31775116447859,-23.90058113218612 L 56.17946155507568,-24.890972965720294 A 96.15102956554156 96.15102956554156 0 0 0 21.40063509461097,-12.933012701892217 Z M 78.25126564830838,-25.41354523265325 L 78.16000177094193,-24.417718488340753 A 95.15102956554156 95.15102956554156 0 0 1 113.098584847859,-14.22619092010834 L 111.72322080283531,-11.560037559242526 L 119.54883669738318,-11.461367041864039 L 114.93240357455726,-17.781062067929426 L 113.55703952953357,-15.114908707063613 A 96.15102956554156 96.15102956554156 0 0 0 78.25126564830838,-25.41354523265325"/><text text-anchor="middle" pointer-events="none" font-size="8px" fill="#000000" x="67.21214954841992" y="-22.28801057062148" transform="rotate(180 67.21214954841992 -25.28801057062148)" font-family="Helvetica Neue, Helvetica, Arial, sans-serif">road</text></g></g><g class="layer nodes"><g class="node" aria-label="graph-node3" transform="translate(-245.10950863510257,22.932989160449928)"><circle class="b-outline" cx="0" cy="0" r="25" fill="#D9C8AE" stroke="#c0a378" stroke-width="2px"/><text class="caption" text-anchor="middle" pointer-events="none" x="0" y="5" font-size="10px" fill="#2A2C34" font-family="Helvetica Neue, Helvetica, Arial, sans-serif"> Sandakp…</text></g><g class="node" aria-label="graph-node2" transform="translate(-108.9742509937351,-41.21225617464291)"><circle class="b-outline" cx="0" cy="0" r="25" fill="#F16667" stroke="#eb2728" stroke-width="2px"/><text class="caption" text-anchor="middle" pointer-events="none" x="0" y="5" font-size="10px" fill="#FFFFFF" font-family="Helvetica Neue, Helvetica, Arial, sans-serif"> BhikeBh…</text></g><g class="node" aria-label="graph-node1" transform="translate(120.49261250971391,27.630517509982646)"><circle class="b-outline" cx="0" cy="0" r="25" fill="#57C7E3" stroke="#23b3d7" stroke-width="2px"/><text class="caption" text-anchor="middle" pointer-events="none" x="0" y="5" font-size="10px" fill="#2A2C34" font-family="Helvetica Neue, Helvetica, Arial, sans-serif"> Darjeeling</text></g><g class="node" aria-label="graph-node0" transform="translate(31.502384999249603,-82.7259943413976)"><circle class="b-outline" cx="0" cy="0" r="25" fill="#57C7E3" stroke="#23b3d7" stroke-width="2px"/><text class="caption" text-anchor="middle" pointer-events="none" x="0" y="5" font-size="10px" fill="#2A2C34" font-family="Helvetica Neue, Helvetica, Arial, sans-serif"> Rimbik</text></g></g></svg>