<svg xmlns="http://www.w3.org/2000/svg" width="343.5423583984375" height="344.64544677734375" viewBox="-162.4883270263672 -162.42698669433594 343.5423583984375 344.64544677734375"><title>Neo4j Graph Visualization</title><desc>Created using Neo4j (http://www.neo4j.com/)</desc><g class="layer relationships"><g class="relationship" transform="translate(56.81026814591906 153.21848517153572) rotate(252.71687469286354)"><path class="outline" fill="#A5ABB6" stroke="none" d="M 25 0.5 L 52.035955113251575 0.5 L 52.035955113251575 -0.5 L 25 -0.5 Z M 87.80939261325157 0.5 L 114.84534772650315 0.5 L 114.84534772650315 3.5 L 121.84534772650315 0 L 114.84534772650315 -3.5 L 114.84534772650315 -0.5 L 87.80939261325157 -0.5 Z"/><text text-anchor="middle" pointer-events="none" font-size="8px" fill="#000000" x="69.92267386325157" y="3" transform="rotate(180 69.92267386325157 0)" font-family="sans-serif">WROTE</text></g><g class="relationship" transform="translate(152.05402044127788 60.800174494906635) rotate(198.9925312483765)"><path class="outline" fill="#A5ABB6" stroke="none" d="M 25 0.5 L 52.046181928212874 0.5 L 52.046181928212874 -0.5 L 25 -0.5 Z M 87.81961942821287 0.5 L 114.86580135642575 0.5 L 114.86580135642575 3.5 L 121.86580135642575 0 L 114.86580135642575 -3.5 L 114.86580135642575 -0.5 L 87.81961942821287 -0.5 Z"/><text text-anchor="middle" pointer-events="none" font-size="8px" fill="#000000" x="69.93290067821287" y="3" transform="rotate(180 69.93290067821287 0)" font-family="sans-serif">WROTE</text></g><g class="relationship" transform="translate(135.42111715830214 -68.5880934252321) rotate(506.27757211973386)"><path class="outline" fill="#A5ABB6" stroke="none" d="M 25 0.5 L 52.096660508934136 0.5 L 52.096660508934136 -0.5 L 25 -0.5 Z M 87.87009800893414 0.5 L 114.96675851786827 0.5 L 114.96675851786827 3.5 L 121.96675851786827 0 L 114.96675851786827 -3.5 L 114.96675851786827 -0.5 L 87.87009800893414 -0.5 Z"/><text text-anchor="middle" pointer-events="none" font-size="8px" fill="#000000" x="69.98337925893414" y="3" transform="rotate(180 69.98337925893414 0)" font-family="sans-serif">WROTE</text></g><g class="relationship" transform="translate(26.85350775686173 -133.42698845345828) rotate(455.33340851975913)"><path class="outline" fill="#A5ABB6" stroke="none" d="M 25 0.5 L 47.25231969633785 0.5 L 47.25231969633785 -0.5 L 25 -0.5 Z M 92.81481969633785 0.5 L 115.0671393926757 0.5 L 115.0671393926757 3.5 L 122.0671393926757 0 L 115.0671393926757 -3.5 L 115.0671393926757 -0.5 L 92.81481969633785 -0.5 Z"/><text text-anchor="middle" pointer-events="none" font-size="8px" fill="#000000" x="70.03356969633785" y="3" transform="rotate(180 70.03356969633785 0)" font-family="sans-serif">ACTED_IN</text></g><g class="relationship" transform="translate(-89.71146318345828 -92.11342700493886) rotate(405.6120061246438)"><path class="outline" fill="#A5ABB6" stroke="none" d="M 25 0.5 L 46.60215474456419 0.5 L 46.60215474456419 -0.5 L 25 -0.5 Z M 93.49277974456419 0.5 L 115.09493448912838 0.5 L 115.09493448912838 3.5 L 122.09493448912838 0 L 115.09493448912838 -3.5 L 115.09493448912838 -0.5 L 93.49277974456419 -0.5 Z"/><text text-anchor="middle" pointer-events="none" font-size="8px" fill="#000000" x="70.04746724456419" y="3" font-family="sans-serif">DIRECTED</text></g><g class="relationship" transform="translate(-133.48832891152895 23.279739902816992) rotate(355.99222462005696)"><path class="outline" fill="#A5ABB6" stroke="none" d="M 25 0.5 L 47.23441424558379 0.5 L 47.23441424558379 -0.5 L 25 -0.5 Z M 92.79691424558379 0.5 L 115.03132849116759 0.5 L 115.03132849116759 3.5 L 122.03132849116759 0 L 115.03132849116759 -3.5 L 115.03132849116759 -0.5 L 92.79691424558379 -0.5 Z"/><text text-anchor="middle" pointer-events="none" font-size="8px" fill="#000000" x="70.01566424558379" y="3" font-family="sans-serif">ACTED_IN</text></g><g class="relationship" transform="translate(-71.59809821525295 132.98897551109698) rotate(305.24495429090547)"><path class="outline" fill="#A5ABB6" stroke="none" d="M 25 0.5 L 47.17696401062791 0.5 L 47.17696401062791 -0.5 L 25 -0.5 Z M 92.73946401062791 0.5 L 114.91642802125583 0.5 L 114.91642802125583 3.5 L 121.91642802125583 0 L 114.91642802125583 -3.5 L 114.91642802125583 -0.5 L 92.73946401062791 -0.5 Z"/><text text-anchor="middle" pointer-events="none" font-size="8px" fill="#000000" x="69.95821401062791" y="3" font-family="sans-serif">ACTED_IN</text></g></g><g class="layer nodes"><g class="node" aria-label="graph-node171" transform="translate(56.81026814591906,153.21848517153572)"><circle class="outline" cx="0" cy="0" r="25" fill="#C990C0" stroke="#b261a5" stroke-width="2px"/><text class="caption" text-anchor="middle" pointer-events="none" x="0" y="0" font-size="10px" fill="#FFFFFF" font-family="sans-serif"> Joe</text><text class="caption" text-anchor="middle" pointer-events="none" x="0" y="10" font-size="10px" fill="#FFFFFF" font-family="sans-serif"> Simon</text></g><g class="node" aria-label="graph-node169" transform="translate(13.183445449576348,13.003448565829615)"><circle class="outline" cx="0" cy="0" r="25" fill="#F79767" stroke="#f36924" stroke-width="2px"/><text class="caption" text-anchor="middle" pointer-events="none" x="0" y="-5" font-size="10px" fill="#FFFFFF" font-family="sans-serif"> Captain</text><text class="caption" text-anchor="middle" pointer-events="none" x="0" y="5" font-size="10px" fill="#FFFFFF" font-family="sans-serif"> America:</text><text class="caption" text-anchor="middle" pointer-events="none" x="0" y="15" font-size="10px" fill="#FFFFFF" font-family="sans-serif"> Th</text></g><g class="node" aria-label="graph-node181" transform="translate(152.05402044127788,60.800174494906635)"><circle class="outline" cx="0" cy="0" r="25" fill="#C990C0" stroke="#b261a5" stroke-width="2px"/><text class="caption" text-anchor="middle" pointer-events="none" x="0" y="0" font-size="10px" fill="#FFFFFF" font-family="sans-serif"> Stephen</text><text class="caption" text-anchor="middle" pointer-events="none" x="0" y="10" font-size="10px" fill="#FFFFFF" font-family="sans-serif"> McFe…</text></g><g class="node" aria-label="graph-node170" transform="translate(135.42111715830214,-68.5880934252321)"><circle class="outline" cx="0" cy="0" r="25" fill="#C990C0" stroke="#b261a5" stroke-width="2px"/><text class="caption" text-anchor="middle" pointer-events="none" x="0" y="5" font-size="10px" fill="#FFFFFF" font-family="sans-serif"> Christop…</text></g><g class="node" aria-label="graph-node182" transform="translate(26.85350775686173,-133.42698845345828)"><circle class="outline" cx="0" cy="0" r="25" fill="#C990C0" stroke="#b261a5" stroke-width="2px"/><text class="caption" text-anchor="middle" pointer-events="none" x="0" y="0" font-size="10px" fill="#FFFFFF" font-family="sans-serif"> Chris</text><text class="caption" text-anchor="middle" pointer-events="none" x="0" y="10" font-size="10px" fill="#FFFFFF" font-family="sans-serif"> Evans</text></g><g class="node" aria-label="graph-node180" transform="translate(-89.71146318345828,-92.11342700493886)"><circle class="outline" cx="0" cy="0" r="25" fill="#C990C0" stroke="#b261a5" stroke-width="2px"/><text class="caption" text-anchor="middle" pointer-events="none" x="0" y="0" font-size="10px" fill="#FFFFFF" font-family="sans-serif"> Joe</text><text class="caption" text-anchor="middle" pointer-events="none" x="0" y="10" font-size="10px" fill="#FFFFFF" font-family="sans-serif"> Johnst…</text></g><g class="node" aria-label="graph-node172" transform="translate(-133.48832891152895,23.279739902816992)"><circle class="outline" cx="0" cy="0" r="25" fill="#C990C0" stroke="#b261a5" stroke-width="2px"/><text class="caption" text-anchor="middle" pointer-events="none" x="0" y="0" font-size="10px" fill="#FFFFFF" font-family="sans-serif"> Hugo</text><text class="caption" text-anchor="middle" pointer-events="none" x="0" y="10" font-size="10px" fill="#FFFFFF" font-family="sans-serif"> Weavi…</text></g><g class="node" aria-label="graph-node183" transform="translate(-71.59809821525295,132.98897551109698)"><circle class="outline" cx="0" cy="0" r="25" fill="#C990C0" stroke="#b261a5" stroke-width="2px"/><text class="caption" text-anchor="middle" pointer-events="none" x="0" y="0" font-size="10px" fill="#FFFFFF" font-family="sans-serif"> Samuel L.</text><text class="caption" text-anchor="middle" pointer-events="none" x="0" y="10" font-size="10px" fill="#FFFFFF" font-family="sans-serif"> Jackson</text></g></g></svg>